<svg xmlns="http://www.w3.org/2000/svg" viewBox="0 0 64 64" fill="none">
  <defs>
    <linearGradient id="peoShieldFill" x1="32" y1="4" x2="32" y2="60" gradientUnits="userSpaceOnUse">
      <stop offset="0" stop-color="#1A1A24"/>
      <stop offset="1" stop-color="#0E0E14"/>
    </linearGradient>
    <linearGradient id="peoShieldEdge" x1="32" y1="4" x2="32" y2="60" gradientUnits="userSpaceOnUse">
      <stop offset="0" stop-color="#E91E8C"/>
      <stop offset="1" stop-color="#7C3AED"/>
    </linearGradient>
  </defs>
  <path
    d="M32 4 L56 12 L56 32 C56 46 46 55 32 60 C18 55 8 46 8 32 L8 12 Z"
    fill="url(#peoShieldFill)"
    stroke="url(#peoShieldEdge)"
    stroke-width="2.5"
    stroke-linejoin="round"
  />
  <g stroke="#FFFFFF" stroke-width="1.1" stroke-opacity="0.9">
    <line x1="32" y1="18" x2="45" y2="25"/>
    <line x1="45" y1="25" x2="45" y2="38"/>
    <line x1="45" y1="38" x2="32" y2="46"/>
    <line x1="32" y1="46" x2="19" y2="38"/>
    <line x1="19" y1="38" x2="19" y2="25"/>
    <line x1="19" y1="25" x2="32" y2="18"/>
  </g>
  <g fill="#FFFFFF">
    <circle cx="32" cy="18" r="2.6"/>
    <circle cx="45" cy="25" r="2.6"/>
    <circle cx="45" cy="38" r="2.6"/>
    <circle cx="32" cy="46" r="2.6"/>
    <circle cx="19" cy="38" r="2.6"/>
    <circle cx="19" cy="25" r="2.6"/>
  </g>
</svg>
